<svg version="1.1" id="Layer_1" xmlns="http://www.w3.org/2000/svg" xmlns:xlink="http://www.w3.org/1999/xlink" x="0px" y="0px"
	 width="100%" viewBox="0 0 640 400" enable-background="new 0 0 512 720" xml:space="preserve" >
<path fill="#f44f4f" opacity="1.000000" stroke="none" transform="rotate(55 420 300)"
	d="
M117.519272,576.480591 
	C112.350594,570.754333 107.807076,565.017334 105.149078,558.047058 
	C104.522514,556.403931 103.603035,555.185852 102.065186,554.310242 
	C81.285164,542.478699 84.169273,509.288849 97.945549,496.972168 
	C100.654503,494.550232 103.351326,492.114716 106.104004,489.640289 
	C104.497688,487.462860 102.241089,487.333069 100.173996,487.168243 
	C85.653770,486.010376 77.053459,476.830902 71.060089,464.900482 
	C66.375519,455.575348 62.553711,445.975067 62.428978,434.979828 
	C62.329933,426.249023 57.717720,418.018066 57.255116,409.113342 
	C56.317829,391.071320 60.598419,374.930237 73.711838,361.670105 
	C80.305679,355.002472 84.418343,346.453522 89.706635,338.791718 
	C96.893646,328.379089 104.833946,318.767731 118.349724,316.306885 
	C120.504044,315.914673 122.802330,315.229156 124.765610,316.007996 
	C130.758820,318.385406 136.381424,316.513611 142.309280,315.634277 
	C152.135208,314.176758 162.150253,313.528656 172.410980,317.852600 
	C171.151215,312.202179 168.994934,307.654724 168.759399,302.681488 
	C168.401047,295.114075 169.257370,287.751312 171.866196,280.585083 
	C179.922440,258.455322 192.059570,239.740494 214.195282,229.197372 
	C215.959808,228.356949 217.484894,226.944107 218.994781,225.649750 
	C230.427795,215.848602 243.696152,213.201126 258.249481,215.472839 
	C268.385376,217.054993 278.014069,219.895615 286.351349,226.241348 
	C290.332642,229.271637 292.110748,226.506561 293.883118,223.217606 
	C301.425781,209.220917 318.164825,202.841492 331.791870,210.763504 
	C339.584442,215.293671 345.959656,217.396286 354.793579,215.096069 
	C361.449341,213.363022 360.787506,214.447922 361.355469,207.249939 
	C362.512817,192.582184 365.474426,178.341339 380.186951,170.383423 
	C382.006165,169.399414 383.665070,168.143936 384.165802,166.106796 
	C389.056580,146.209778 404.608887,139.307098 422.136627,134.638992 
	C429.955139,132.556717 438.058807,133.396713 445.915924,131.881836 
	C464.446930,128.309036 476.648346,116.147896 475.920746,95.713379 
	C475.843750,93.549797 475.803986,91.381142 475.861450,89.217888 
	C475.897430,87.863731 476.152649,86.349838 477.854248,86.244370 
	C479.608734,86.135620 479.889496,87.606117 480.069519,88.982918 
	C483.049194,111.775520 477.009033,131.151688 458.415070,145.671783 
	C454.219635,148.947983 449.816498,151.968536 445.412781,154.965408 
	C437.360168,160.445480 430.320831,166.865479 424.544556,174.821854 
	C418.369720,183.327240 416.421936,192.240921 418.625519,202.584442 
	C421.407043,215.640808 426.311096,228.049332 429.419556,241.005768 
	C433.800262,259.264954 428.872894,275.179230 418.674438,290.109467 
	C411.258057,300.966888 401.604156,309.067505 389.667297,314.632446 
	C383.447388,317.532135 376.616333,316.889313 369.999420,318.741547 
	C369.864471,321.582672 371.704529,323.679016 372.666077,326.053955 
	C383.068817,351.748199 381.949188,376.606659 366.194916,399.812286 
	C357.410767,412.751160 343.957855,419.544800 329.394318,424.231415 
	C328.920715,424.383850 328.411285,424.423462 327.934570,424.568298 
	C324.123535,425.726288 319.522614,425.947906 316.707428,428.302307 
	C313.131104,431.293182 317.148804,435.676392 317.184906,439.520203 
	C317.244690,445.891846 316.943298,452.095551 314.657867,458.186615 
	C309.475372,471.998688 301.769623,484.099274 290.800629,493.975281 
	C283.624237,500.436523 275.052185,503.809998 265.353699,504.177795 
	C265.020721,504.190430 264.685852,504.182251 264.354828,504.214233 
	C260.545929,504.582245 256.126617,503.874603 253.079895,505.595581 
	C249.044144,507.875244 252.890869,512.465027 252.367615,516.087646 
	C251.695709,520.739563 251.161133,525.416382 249.128265,529.610291 
	C247.247589,533.490173 246.525955,537.506287 246.290802,541.648438 
	C245.438385,556.663879 239.410645,569.161621 228.738022,579.702759 
	C217.358810,590.941772 204.491287,599.509216 188.071121,599.594421 
	C172.350555,599.676086 156.953766,596.375183 142.259140,590.660828 
	C133.466766,587.241699 124.250557,584.320007 117.519272,576.480591 
M269.783966,229.729630 
	C259.292755,224.907883 248.345551,224.340042 237.061340,225.862656 
	C228.486069,227.019714 222.578445,233.044968 215.491882,236.926773 
	C204.874451,242.742691 196.020370,250.150742 191.156754,261.709106 
	C188.838913,267.217438 185.597656,272.329712 183.036819,277.745361 
	C180.328659,283.472534 178.088440,289.338440 177.869629,295.860901 
	C177.471603,307.727112 182.061386,318.266541 186.232727,328.935303 
	C186.585785,329.838287 187.286987,330.637390 187.939362,331.386383 
	C202.405487,347.994080 218.728836,357.789185 242.282242,350.952362 
	C265.137848,344.318115 279.124390,324.813568 274.477356,301.562042 
	C272.871033,293.524719 270.527069,285.312408 261.808014,281.169891 
	C242.193497,271.850800 225.371811,288.257141 226.090561,307.428436 
	C226.365479,314.761108 228.972504,318.889038 234.965912,321.001831 
	C240.048996,322.793671 242.988419,320.881012 243.746475,315.288330 
	C237.081970,316.787872 231.748795,313.676117 231.087509,307.902161 
	C230.041687,298.770691 235.877777,287.868225 244.065323,283.658112 
	C252.471954,279.335358 261.357544,281.658234 265.233032,289.819061 
	C268.372375,296.429810 270.415710,303.520691 271.147125,310.879456 
	C271.731995,316.763947 269.906586,321.962341 266.793854,326.948456 
	C257.697418,341.519348 242.798340,345.590698 227.495560,348.915161 
	C225.998398,349.240387 224.140854,348.698914 222.639603,348.092072 
	C205.572327,341.192932 192.339874,330.249847 185.489105,312.613068 
	C183.238754,306.819763 182.439011,300.518341 184.230759,294.931854 
	C190.742126,274.630066 196.706436,253.686783 218.553421,243.506073 
	C219.443573,243.091263 220.234940,242.416931 220.990784,241.768463 
	C233.200897,231.292969 247.531265,230.604935 262.428223,232.942917 
	C271.190063,234.318054 278.689575,239.613190 287.473358,241.209702 
	C292.112549,242.052917 295.194672,241.814575 297.822205,237.181625 
	C302.592926,228.769653 310.084442,224.156128 319.811218,222.486313 
	C327.840485,221.107910 333.126038,225.488556 338.658539,229.672104 
	C341.283325,231.656952 343.405853,231.747940 346.376709,230.284821 
	C352.705231,227.168106 359.520538,226.084778 366.107513,229.212860 
	C369.184021,230.673889 371.728943,231.344543 374.352142,229.106186 
	C377.066132,226.790390 377.623108,223.547989 376.363037,220.438522 
	C374.796509,216.572815 374.635193,212.649216 374.821777,208.655823 
	C375.324646,197.891998 377.383911,187.901352 387.043549,181.019135 
	C390.819366,178.328964 393.792633,174.520096 395.665833,170.151215 
	C398.689423,163.099426 404.445343,158.962326 410.960358,155.767487 
	C414.488464,154.037399 417.969543,151.767365 422.656128,151.628387 
	C422.131775,152.655701 422.014648,153.176361 421.692047,153.475494 
	C405.188995,168.780411 399.376007,187.688553 402.959930,209.641113 
	C405.263245,223.749496 408.968964,237.573364 410.999603,251.773193 
	C413.271240,267.657867 409.562927,281.712860 398.444763,292.609314 
	C388.511261,302.344666 375.481812,307.155396 361.338684,308.018311 
	C354.643372,308.426880 353.560364,309.732208 355.399353,316.178497 
	C358.610504,327.434540 360.975739,338.943878 361.449646,350.544739 
	C361.983124,363.603699 359.634674,376.352448 352.350983,387.809601 
	C341.616852,404.694122 326.400879,414.630127 306.852173,418.182495 
	C303.252319,418.836670 301.571686,420.488434 301.558044,424.585907 
	C301.513428,437.978241 299.872345,451.181091 294.261810,463.543976 
	C285.599030,482.632568 270.636993,492.099609 252.386520,490.455292 
	C243.691391,489.671844 237.392426,484.260712 230.861191,479.493286 
	C216.299103,468.863800 211.621979,445.136993 226.621262,429.843567 
	C233.624664,422.702789 245.697021,420.364685 253.876114,424.344513 
	C257.546783,426.130615 260.331329,432.266693 258.702271,435.737762 
	C256.582153,440.255188 252.595123,439.507904 248.744354,438.685150 
	C247.841202,438.492218 247.071716,437.399872 245.772354,438.537842 
	C245.713333,443.193298 249.019806,444.450409 252.834656,444.837524 
	C257.941620,445.355804 261.979034,442.339020 262.762238,437.747925 
	C264.115601,429.814911 258.819000,422.480255 250.844711,421.231842 
	C247.722488,420.743042 244.557159,420.426849 241.492462,419.693542 
	C234.201401,417.948914 228.303360,421.128662 224.148026,426.170898 
	C214.955078,437.325958 212.335526,450.465790 217.209763,464.132050 
	C223.519836,481.824066 235.281937,493.689209 255.038651,495.648071 
	C268.943665,497.026794 281.275818,493.661987 289.350586,481.762451 
	C299.108093,467.383209 303.756256,451.046021 303.382111,433.617981 
	C303.155426,423.058960 305.011078,419.867096 315.460419,418.881195 
	C329.876801,417.520996 341.289703,410.273254 349.906525,399.654999 
	C369.627197,375.353912 370.309631,348.218658 358.948242,320.132477 
	C356.194824,313.325928 357.507141,310.455719 364.805878,309.904144 
	C366.133453,309.803802 367.473907,309.749634 368.802643,309.807312 
	C382.417938,310.398224 393.582855,304.472687 402.838623,295.447083 
	C415.824310,282.784363 416.904510,266.263947 415.263519,249.412811 
	C413.887451,235.281677 409.525665,221.736008 406.588623,207.909592 
	C404.473480,197.952164 403.243835,187.716400 407.891327,177.991241 
	C411.964417,169.468002 417.928131,162.361069 424.980621,156.082291 
	C430.539337,151.133484 437.420502,148.130798 443.890594,143.314926 
	C439.597382,143.314926 436.121002,143.278290 432.645599,143.321289 
	C417.862488,143.504135 405.552917,149.190872 395.503143,159.974350 
	C394.220215,161.350983 393.094116,162.758362 392.665588,164.587357 
	C391.449890,169.776245 388.315063,173.417221 383.856171,176.185593 
	C378.399109,179.573669 375.179779,184.678299 372.822235,190.581909 
	C369.152618,199.771210 370.234467,208.865616 372.586334,218.042923 
	C373.173004,220.332260 373.697723,222.853546 371.867615,224.681274 
	C370.095551,226.451004 367.634125,225.621033 365.744202,224.760574 
	C359.155945,221.760986 353.085785,222.865067 347.271820,226.622726 
	C345.576080,227.718704 344.015381,228.365097 342.316223,226.821091 
	C339.426910,224.195587 335.756287,222.895477 332.450623,220.981186 
	C321.328369,214.540436 303.874786,219.003372 297.147675,229.946320 
	C293.616302,235.690750 289.226288,237.620682 282.769928,235.514191 
	C278.525604,234.129410 274.544891,231.936646 269.783966,229.729630 
M70.822609,443.463135 
	C71.626305,445.828033 72.274696,448.259827 73.259392,450.546814 
	C78.840431,463.508698 86.420425,474.334778 101.127731,478.381714 
	C106.531380,479.868622 111.565720,482.711914 116.745804,484.988190 
	C118.250504,485.649384 120.027802,486.265320 119.968933,488.340790 
	C119.922379,489.982056 118.736145,491.077515 117.389015,491.790833 
	C115.776016,492.644928 114.045441,493.276794 112.366379,494.006287 
	C104.880280,497.258545 99.631042,502.675476 97.813652,510.663055 
	C96.188568,517.805359 95.511887,525.107849 96.933769,532.463501 
	C98.572121,540.939087 102.854630,547.552490 110.248688,552.067444 
	C112.346565,553.348450 113.347992,555.342529 114.529572,557.402649 
	C119.611359,566.263000 126.615341,573.174744 135.979187,577.538879 
	C150.383453,584.252197 166.022110,585.973633 181.401016,588.630005 
	C190.730637,590.241455 200.612091,590.344788 208.642883,585.308899 
	C223.370895,576.073425 235.009460,563.865173 237.844711,545.552246 
	C239.082764,537.555725 238.593933,529.268372 242.189575,521.666138 
	C244.245895,517.318481 243.882080,512.544067 243.813690,507.888519 
	C243.788635,506.183105 244.082703,504.039642 241.419785,503.689697 
	C239.594269,504.823456 240.236069,506.656250 240.130585,508.218628 
	C239.825851,512.732666 239.326614,517.282837 237.333221,521.330505 
	C235.324860,525.408630 234.857178,529.536560 235.129333,533.923523 
	C236.628082,558.080505 214.610931,583.705872 186.086334,584.312744 
	C173.253479,584.585754 161.233856,580.472229 148.977509,577.332336 
	C135.812912,573.959839 126.637489,566.135559 119.513542,555.074341 
	C118.112541,552.899048 117.828957,549.928711 115.104858,548.605347 
	C98.136452,540.362488 97.435013,511.207245 111.819008,500.570831 
	C114.756485,498.398682 117.659668,496.170502 120.466774,493.833740 
	C126.094856,489.148651 125.132507,484.318115 118.077705,481.855133 
	C114.307480,480.538849 110.386345,479.627289 106.678268,478.165375 
	C92.188438,472.452789 81.724396,462.688660 78.122391,447.170990 
	C75.195000,434.559601 71.842598,422.023804 71.050697,408.936768 
	C70.315353,396.784637 71.104889,385.042084 78.760986,375.205627 
	C82.339912,370.607452 85.748566,365.944519 89.012077,361.138000 
	C93.684273,354.256805 98.330833,347.352722 103.210320,340.619263 
	C108.313286,333.577393 115.732765,329.731323 123.979652,331.543335 
	C128.832382,332.609619 132.992508,332.410828 137.454971,331.488342 
	C141.849213,330.579956 146.144684,329.068573 150.571152,328.469360 
	C157.962555,327.468750 165.692230,328.098145 171.612732,332.476898 
	C183.550720,341.306061 190.405228,354.269989 196.793076,367.339447 
	C197.807526,369.415009 198.401596,371.820770 197.995071,374.157532 
	C196.989899,379.935272 197.252045,385.785858 196.745453,391.586090 
	C195.608185,404.607727 187.419449,412.520386 176.695541,418.220520 
	C165.338150,424.257355 154.952866,422.184998 145.540390,413.615265 
	C142.005844,410.397156 140.299622,406.071198 142.485428,403.197235 
	C145.205154,399.621185 148.723816,399.233368 152.543884,402.153717 
	C154.393448,398.905487 153.675385,396.864258 150.667068,395.450958 
	C143.947647,392.294250 136.237259,396.533264 135.259323,403.939972 
	C134.453140,410.045929 138.572388,416.969788 144.831726,419.388794 
	C148.859131,420.945221 152.845871,422.472565 156.726700,424.433044 
	C161.687759,426.939148 167.309067,428.495056 172.699219,426.484070 
	C184.163193,422.207123 194.195419,415.885071 199.775787,404.276855 
	C204.986038,393.438538 201.934708,381.953583 201.685944,370.886566 
	C201.480682,361.754883 196.634003,353.300598 190.598663,346.244476 
	C183.887360,338.398132 178.734680,328.990143 167.856400,325.241425 
	C161.185760,322.942719 154.012009,321.600006 147.820129,322.708557 
	C137.755508,324.510406 127.697876,324.811768 117.685692,326.035553 
	C107.224976,327.314209 100.280136,334.953064 94.975250,343.989899 
	C89.847527,352.724915 83.927650,360.859222 77.345543,368.688416 
	C66.751823,381.289185 61.921185,396.446533 65.212494,412.885529 
	C67.194366,422.784363 70.887672,432.335236 70.822609,443.463135 
M147.600220,497.930420 
	C149.459747,488.853302 152.831390,480.394348 161.189545,475.615814 
	C166.366562,472.656067 170.444305,468.824738 174.643951,464.803986 
	C181.258423,458.471191 188.811951,455.595093 197.759460,460.483002 
	C200.184814,461.807922 202.927200,462.552521 205.769257,463.658936 
	C206.252640,460.755707 205.903824,458.579102 203.758514,457.048615 
	C194.834854,450.682343 180.079361,446.848938 172.471924,461.091766 
	C170.995926,463.855133 168.986374,466.177460 165.921387,466.858948 
	C159.166351,468.360962 154.463379,472.891907 149.996216,477.548889 
	C140.170547,487.791931 139.540649,502.286652 148.446548,512.455811 
	C151.348236,515.769043 153.766129,519.192200 155.351166,523.290222 
	C157.356384,528.474487 161.067352,531.815857 166.034988,534.544739 
	C175.731720,539.871582 183.864944,533.762512 189.620132,526.497070 
	C194.158218,520.768005 191.699875,511.094543 185.009308,505.610016 
	C181.179291,502.470367 178.928375,503.323242 177.506042,508.453033 
	C183.762527,508.947937 188.987518,515.130737 187.648834,520.455078 
	C186.416367,525.356934 180.227478,530.393433 174.220062,531.088928 
	C168.705154,531.727295 165.582947,528.277588 163.328644,523.928894 
	C161.310974,520.036682 158.750275,516.723389 155.544281,513.680725 
	C151.303299,509.655731 147.712128,505.013519 147.600220,497.930420 
z"/>
</svg>