<?xml version="1.0" encoding="UTF-8"?>
<!DOCTYPE svg PUBLIC "-//W3C//DTD SVG 1.1//EN" "http://www.w3.org/Graphics/SVG/1.1/DTD/svg11.dtd">
<!-- Creator: CorelDRAW (Evaluation Version) -->
<svg xmlns="http://www.w3.org/2000/svg" xml:space="preserve" width="11.25in" height="11.25in" version="1.1" style="shape-rendering:geometricPrecision; text-rendering:geometricPrecision; image-rendering:optimizeQuality; fill-rule:evenodd; clip-rule:evenodd"
viewBox="0 0 11250 11250"
 xmlns:xlink="http://www.w3.org/1999/xlink"
 xmlns:xodm="http://www.corel.com/coreldraw/odm/2003">
 <defs>
  <style type="text/css">
   <![CDATA[
    .str0 {stroke:black;stroke-width:10.41;stroke-miterlimit:2.61313}
    .str1 {stroke:#fd4556;stroke-width:520.83;stroke-miterlimit:2.61313}
    .fil1 {fill:none}
    .fil0 {fill:#fd4556}
   ]]>
  </style>
 </defs>
 <g id="Layer_x0020_1">
  <metadata id="CorelCorpID_0Corel-Layer"/>
  <g id="_2636638054496">
   <polygon class="fil0 str0" points="4393.79,4917.26 5596.19,6074.15 5645.05,6121.17 6824.64,4904.48 7483.75,5555.85 6265.25,6798.26 6882.27,7403.41 8656.15,5594.74 8656.24,5594.65 8703.63,5546.32 7426.25,4283.95 8027.03,3664.28 7412.29,3056.75 6811.5,3676.43 5591.94,2471.18 4984.44,3085.89 6209.89,4296.96 5623.85,4901.43 4397.31,3721.31 4376.15,3700.96 4369.84,3694.88 3770.62,4317.67 3770.97,4318.01 2602.47,5509.43 2602.39,5509.51 2602.21,5509.69 2554.99,5557.84 5666.69,8632.99 6274.19,8018.27 3774.88,5548.31 "/>
   <rect class="fil1 str1" transform="matrix(-0.538728 -0.536874 -0.528294 0.530119 10821.9 5578.23)" width="9612.03" height="9768.14"/>
  </g>
 </g>
</svg>
